<svg xmlns="http://www.w3.org/2000/svg" xmlns:xlink="http://www.w3.org/1999/xlink" width="13" height="9" version="1.1" viewBox="0 0 13 9"><title>FB8D74E0-B181-4525-85B7-71A3175AE971</title><desc>Created with sketchtool.</desc><g id="Dashboard" fill="none" fill-rule="evenodd" stroke="none" stroke-linecap="round" stroke-linejoin="round" stroke-width="1" opacity=".5"><g id="05-00-Console-Page---New-Script-Builder---Collapsed" fill-rule="nonzero" stroke="#748790" stroke-width="1.5" transform="translate(-53.000000, -149.000000)"><g id="Group-9" transform="translate(45.000000, 50.000000)"><g id="Group-4"><g id="Left-panel-Bar" transform="translate(0.000000, 90.000000)"><g id="Collapse" transform="translate(9.000000, 10.000000)"><g id="Path-2"><path id="Path" d="M-0.8,5.6 L1.36160123,2.35759815 C1.7439291,1.78410635 2.51877404,1.62913736 3.09226584,2.01146523 C3.2293615,2.10286233 3.34700166,2.2205025 3.43839877,2.35759815 L5.6,5.6 L5.6,5.6" transform="translate(2.400000, 3.200000) rotate(-270.000000) translate(-2.400000, -3.200000)"/></g><g id="Path-2-Copy-3" transform="translate(6.600000, 0.000000)"><path id="Path" d="M-0.8,5.6 L1.36160123,2.35759815 C1.7439291,1.78410635 2.51877404,1.62913736 3.09226584,2.01146523 C3.2293615,2.10286233 3.34700166,2.2205025 3.43839877,2.35759815 L5.6,5.6 L5.6,5.6" transform="translate(2.400000, 3.200000) rotate(-270.000000) translate(-2.400000, -3.200000)"/></g></g></g></g></g></g></g></svg>