<svg xmlns="http://www.w3.org/2000/svg" width="38" height="38" fill="none" viewBox="0 0 38 38"><g filter="url(#filter0_d)"><mask id="mask0" width="24" height="24" x="7" y="7" mask-type="alpha" maskUnits="userSpaceOnUse"><rect width="24" height="24" x="7" y="7" fill="#fff"/></mask><g mask="url(#mask0)"><path fill="#fff" fill-rule="evenodd" d="M22.5 21.7C25.5376 21.7 28 19.2375 28 16.2C28 13.1624 25.5376 10.7 22.5 10.7C19.4624 10.7 17 13.1624 17 16.2C17 19.2375 19.4624 21.7 22.5 21.7ZM22.5 19.7C24.433 19.7 26 18.1329 26 16.2C26 14.267 24.433 12.7 22.5 12.7C20.567 12.7 19 14.267 19 16.2C19 18.1329 20.567 19.7 22.5 19.7Z" clip-rule="evenodd"/><rect width="2" height="7" x="23" y="20.877" fill="#fff" transform="rotate(-26 23 20.8767)"/><rect width="10" height="2" x="10" y="24.7" fill="#fff"/><rect width="5" height="2" x="10" y="11.2" fill="#fff"/><rect width="5" height="2" x="10" y="15.7" fill="#fff"/><rect width="6" height="2" x="10" y="20.2" fill="#fff"/></g></g><defs><filter id="filter0_d" width="38" height="36.468" x="0" y=".7" color-interpolation-filters="sRGB" filterUnits="userSpaceOnUse"><feFlood flood-opacity="0" result="BackgroundImageFix"/><feColorMatrix in="SourceAlpha" type="matrix" values="0 0 0 0 0 0 0 0 0 0 0 0 0 0 0 0 0 0 127 0"/><feOffset/><feGaussianBlur stdDeviation="5"/><feColorMatrix type="matrix" values="0 0 0 0 1 0 0 0 0 1 0 0 0 0 1 0 0 0 0.45 0"/><feBlend in2="BackgroundImageFix" mode="normal" result="effect1_dropShadow"/><feBlend in="SourceGraphic" in2="effect1_dropShadow" mode="normal" result="shape"/></filter></defs></svg>